<svg width="47" height="47" viewBox="0 0 47 47" fill="none" xmlns="http://www.w3.org/2000/svg">
<path fill-rule="evenodd" clip-rule="evenodd" d="M14.1979 19.5833C14.1979 14.4459 18.3626 10.2812 23.5 10.2812C28.6374 10.2812 32.8021 14.4459 32.8021 19.5833C32.8021 24.7207 28.6374 28.8854 23.5 28.8854C18.3626 28.8854 14.1979 24.7207 14.1979 19.5833ZM23.5 13.2187C19.9849 13.2187 17.1354 16.0683 17.1354 19.5833C17.1354 23.0984 19.9849 25.9479 23.5 25.9479C27.0151 25.9479 29.8646 23.0984 29.8646 19.5833C29.8646 16.0683 27.0151 13.2187 23.5 13.2187Z" fill="black"/>
<path fill-rule="evenodd" clip-rule="evenodd" d="M6.90189 17.3447C7.59578 8.92655 14.6304 2.44791 23.0771 2.44791H23.923C32.3696 2.44791 39.4042 8.92655 40.0981 17.3447C40.4709 21.8667 39.074 26.357 36.2018 29.8696L26.8154 41.3489C25.1019 43.4446 21.8981 43.4446 20.1846 41.3489L10.7982 29.8696C7.92598 26.357 6.52914 21.8667 6.90189 17.3447ZM23.0771 5.38541C16.1592 5.38541 10.3978 10.6915 9.82946 17.586C9.51923 21.3496 10.6818 25.0867 13.0722 28.0102L22.4587 39.4895C22.9969 40.1477 24.0031 40.1477 24.5414 39.4895L33.9278 28.0102C36.3182 25.0867 37.4808 21.3496 37.1706 17.586C36.6023 10.6915 30.8408 5.38541 23.923 5.38541H23.0771Z" fill="black"/>
</svg>
